HIERARCHY
ROOT SimulationBone
{
	OFFSET 0.000000 0.000000 0.000000
	CHANNELS 6 Xposition Yposition Zposition Zrotation Yrotation Xrotation 
	JOINT Hips
	{
		OFFSET 0.000000 0.000000 0.000000
		CHANNELS 6 Xposition Yposition Zposition Zrotation Yrotation Xrotation 
		JOINT LeftUpLeg
		{
			OFFSET 0.103462 1.857825 10.548491
			CHANNELS 3 Zrotation Yrotation Xrotation
			JOINT LeftLeg
			{
				OFFSET 43.500000 -0.000038 -0.000006
				CHANNELS 3 Zrotation Yrotation Xrotation
				JOINT LeftFoot
				{
					OFFSET 42.372196 0.000034 -0.000012
					CHANNELS 3 Zrotation Yrotation Xrotation
					JOINT LeftToe
					{
						OFFSET 17.299999 -0.000001 -0.000008
						CHANNELS 3 Zrotation Yrotation Xrotation
						End Site
						{
							OFFSET 0.000000 0.000000 0.000000
						}
					}
				}
			}
		}
		JOINT RightUpLeg
		{
			OFFSET 0.103456 1.857821 -10.548490
			CHANNELS 3 Zrotation Yrotation Xrotation
			JOINT RightLeg
			{
				OFFSET 43.500038 -0.000011 0.000011
				CHANNELS 3 Zrotation Yrotation Xrotation
				JOINT RightFoot
				{
					OFFSET 42.372265 0.000004 0.000029
					CHANNELS 3 Zrotation Yrotation Xrotation
					JOINT RightToe
					{
						OFFSET 17.299988 -0.000007 0.000004
						CHANNELS 3 Zrotation Yrotation Xrotation
						End Site
						{
							OFFSET 0.000000 0.000000 0.000000
						}
					}
				}
			}
		}
		JOINT Spine
		{
			OFFSET 6.901963 -2.603729 -0.000012
			CHANNELS 3 Zrotation Yrotation Xrotation
			JOINT Spine1
			{
				OFFSET 12.588106 0.000010 0.000003
				CHANNELS 3 Zrotation Yrotation Xrotation
				JOINT Spine2
				{
					OFFSET 12.343199 -0.000001 -0.000002
					CHANNELS 3 Zrotation Yrotation Xrotation
					JOINT Neck
					{
						OFFSET 25.832895 -0.000006 0.000023
						CHANNELS 3 Zrotation Yrotation Xrotation
						JOINT Head
						{
							OFFSET 11.766605 0.000011 -0.000027
							CHANNELS 3 Zrotation Yrotation Xrotation
							End Site
							{
								OFFSET 0.000000 0.000000 0.000000
							}
						}
					}
					JOINT LeftShoulder
					{
						OFFSET 19.745903 -1.480368 6.000127
						CHANNELS 3 Zrotation Yrotation Xrotation
						JOINT LeftArm
						{
							OFFSET 11.284108 0.000010 -0.000010
							CHANNELS 3 Zrotation Yrotation Xrotation
							JOINT LeftForeArm
							{
								OFFSET 33.000069 0.000000 0.000030
								CHANNELS 3 Zrotation Yrotation Xrotation
								JOINT LeftHand
								{
									OFFSET 25.199997 0.000019 0.000001
									CHANNELS 3 Zrotation Yrotation Xrotation
									End Site
									{
										OFFSET 0.000000 0.000000 0.000000
									}
								}
							}
						}
					}
					JOINT RightShoulder
					{
						OFFSET 19.746101 -1.480371 -6.000072
						CHANNELS 3 Zrotation Yrotation Xrotation
						JOINT RightArm
						{
							OFFSET 11.284140 -0.000007 -0.000004
							CHANNELS 3 Zrotation Yrotation Xrotation
							JOINT RightForeArm
							{
								OFFSET 33.000080 0.000016 -0.000002
								CHANNELS 3 Zrotation Yrotation Xrotation
								JOINT RightHand
								{
									OFFSET 25.199766 0.000146 0.000422
									CHANNELS 3 Zrotation Yrotation Xrotation
									End Site
									{
										OFFSET 0.000000 0.000000 0.000000
									}
								}
							}
						}
					}
				}
			}
		}
	}
}
MOTION
Frames: 5
Frame Time: 0.033333
-112.450017 0.000000 10.356446 0.000000 -71.764592 0.000000 -6.052341 89.359962 -0.326318 84.529947 -0.885803 177.333246 144.440865 4.237098 176.294518 -17.430160 -0.700723 -2.765865 77.978528 -0.271146 -8.829456 21.454551 0.003087 -0.000001 -179.788665 -0.024995 -173.010030 -39.917456 -0.888924 2.807598 74.036450 -1.041572 3.292078 21.454562 -0.003110 -0.000019 9.579952 -0.220591 2.913642 9.130291 -0.670386 5.800777 8.813958 -0.635263 5.804706 14.282943 -11.354206 -7.876519 -13.245654 13.345070 -13.179483 -152.034383 -78.101000 -30.011315 33.784001 54.083658 38.948737 -89.741295 -3.458599 2.535599 4.237991 0.256842 34.542305 176.184279 79.887498 -2.355007 -11.137875 -53.112121 -10.822827 -106.881409 -0.514668 -3.064455 -10.772770 -0.124873 -19.235643 
-111.100731 0.000000 15.728697 0.000000 -71.205443 0.000000 -5.090793 88.413597 -0.173619 85.235702 -0.296491 177.494282 145.274545 4.130093 173.316118 -18.678307 -0.301479 -3.990017 78.205222 0.792364 -8.156323 21.454553 0.003088 -0.000002 -179.907210 -0.585600 -175.089741 -48.192507 -1.353632 1.505595 71.693156 0.602661 5.182484 21.454562 -0.003106 -0.000017 9.299993 -0.262159 2.653145 8.570750 -0.719990 5.279616 8.254108 -0.688004 5.283851 14.683612 -11.093924 -7.371179 -12.246520 14.037708 -12.687689 -147.755720 -79.333412 -34.324395 37.295968 51.758354 42.204118 -90.133574 -3.295867 2.541612 6.456504 2.407906 32.758899 176.750583 79.111704 -1.797216 -7.290749 -53.358698 -16.119282 -106.397996 -0.488883 -3.044967 -10.589010 0.357067 -19.035502 
-109.699572 0.000000 21.088017 0.000000 -70.696874 0.000000 -4.332654 86.866737 -0.133717 87.100778 -0.999832 177.569812 146.309591 4.756499 170.210951 -24.780811 0.096366 -4.784642 71.508242 2.465352 -3.162513 21.454553 0.003082 -0.000002 179.344717 0.158098 -176.834964 -58.950447 -1.706356 -0.665937 70.810128 1.806120 3.784516 21.454563 -0.003111 -0.000018 9.395200 -0.550685 2.179932 8.754299 -1.264629 4.312161 8.437099 -1.238447 4.319699 14.434637 -10.949761 -6.559306 -12.715178 14.363818 -12.030641 -145.816001 -79.339894 -36.293720 37.962707 49.240999 42.391108 -90.696491 -3.081891 2.551614 7.223341 4.744723 31.359519 176.683975 79.492098 -1.856408 -4.933868 -55.288052 -19.448141 -105.031507 -0.166661 -3.007043 -10.115310 0.598558 -20.493578 
-108.249877 0.000000 26.430259 0.000000 -70.236759 0.000000 -3.438146 84.768303 -0.129348 89.526347 -1.919329 178.519452 146.263146 5.370897 168.937926 -35.790321 -0.963894 -4.685632 70.844915 6.259071 8.677456 21.454551 0.003089 0.000000 178.403844 1.220302 -177.302067 -70.700156 -2.366950 -0.942485 72.243765 2.464902 5.177919 21.454562 -0.003107 -0.000020 9.659134 -0.832741 1.600015 9.282073 -1.791113 3.128395 8.964339 -1.772063 3.139146 13.815784 -10.683623 -6.041542 -13.692621 14.461088 -11.708354 -150.807558 -79.152200 -31.229602 35.882187 47.657010 40.092507 -90.022105 -3.163983 2.527454 8.838709 6.944821 31.241104 176.666490 79.309602 -1.878218 -2.029852 -57.319043 -21.483225 -102.674115 0.288124 -2.934106 -9.559172 0.381851 -21.842159 
-106.754980 0.000000 31.751279 0.000000 -69.822906 0.000000 -2.486314 82.792473 -0.277069 92.923469 -3.131417 178.901709 148.129441 4.734808 166.927487 -47.602098 -1.973118 -3.251410 79.408742 4.442215 8.399814 21.454551 0.003099 0.000001 177.162075 2.374297 -177.626815 -82.290625 -3.115904 1.139223 72.847526 0.076337 2.403408 21.454565 -0.003106 -0.000015 10.193498 -1.284044 1.245689 10.349246 -2.674375 2.372057 10.031072 -2.659861 2.388165 14.109917 -9.670482 -6.025642 -15.462577 14.253990 -11.809156 -157.306811 -79.103624 -24.624794 28.887472 48.490156 35.352745 -85.358506 -4.904322 2.443431 10.196564 8.868546 32.912878 177.710922 77.628727 -0.851593 -0.083201 -58.798865 -21.844933 -97.286319 1.348602 -2.767382 -9.190352 0.814907 -23.288469 
